<svg xmlns="http://www.w3.org/2000/svg" viewBox="0 0 1440 91.71"><defs><style>.cls-1{fill:#fcf9f5;fill-opacity:0.4;}</style></defs><g id="Layer_2" data-name="Layer 2"><g id="Layer_1-2" data-name="Layer 1"><path class="cls-1" d="M1440,91.71,0,91.53H39.76c9.33,0,15-3.51,23.8-8.25L186,17.54c9.31-4.69,14.07-6.46,24.43-6.46h46.15c11.34,0,14.93,1.87,19.66,5L376.48,79.49c7.64,4.41,13.72,3.75,27,1.25L778.23,2.38c12-2.67,17.74-3.64,35.53,0l352.31,57.14c15.43,3.12,20.86,1.84,28.47,0l.17,0L1377,22a26.68,26.68,0,0,1,7.7-.86l36,1.73c5.22,0,7.12.39,9.38,2.5l6.88,5.67c1.39,1,3,.83,3,.46Z"/></g></g></svg>