<?xml version="1.0" encoding="utf-8"?>
<!-- Generator: Adobe Illustrator 24.1.0, SVG Export Plug-In . SVG Version: 6.00 Build 0)  -->
<svg version="1.1" id="Layer_1" xmlns="http://www.w3.org/2000/svg" xmlns:xlink="http://www.w3.org/1999/xlink" x="0px" y="0px"
	 viewBox="0 0 1440 91.7" style="enable-background:new 0 0 1440 91.7;" xml:space="preserve">
<style type="text/css">
	.st0{fill:#FCF9F5;}
</style>
<path class="st0" d="M1440,60.2c0-0.4-1.6-0.5-3,0.5l-6.9,5.7c-2.3,2.1-4.2,2.5-9.4,2.5l-36,1.7c-2.6,0.1-5.2-0.2-7.7-0.9
	l-182.3-37.5h-0.2c-7.6-1.8-13-3.1-28.5,0L813.8,89.3c-17.8,3.7-23.5,2.7-35.5,0L403.5,11c-13.3-2.5-19.4-3.2-27,1.2L276.2,75.6
	c-4.7,3.1-8.3,5-19.7,5h-46.1c-10.4,0-15.1-1.8-24.4-6.5L63.6,8.4c-8.8-4.7-14.5-8.2-23.8-8.2H0L1440,0V60.2z"/>
</svg>
