<svg xmlns="http://www.w3.org/2000/svg" viewBox="0 0 1440 131.51"><defs><style>.cls-1{fill:#1a1a1a;}</style></defs><g id="Layer_2" data-name="Layer 2"><g id="Layer_1-2" data-name="Layer 1"><path class="cls-1" d="M1440,60c0-.4-1.6-.5-3,.5l-6.9,5.7c-2.3,2.1-4.2,2.5-9.4,2.5l-36,1.7a25,25,0,0,1-7.7-.9L1194.7,32h-.2c-7.6-1.8-13-3.1-28.5,0L813.8,89.1c-17.8,3.7-23.5,2.7-35.5,0L403.5,10.8c-13.3-2.5-19.4-3.2-27,1.2L276.2,75.4c-4.7,3.1-8.3,5-19.7,5H210.4c-10.4,0-15.1-1.8-24.4-6.5L63.6,8.2C54.8,3.5,49.1,0,39.8,0H0V131.51H1440Z"/></g></g></svg>