<svg xmlns="http://www.w3.org/2000/svg" viewBox="0 0 390.05 86"><defs><style>.cls-1{fill:#1a1a1a;}</style></defs><g id="Layer_2" data-name="Layer 2"><g id="Layer_1-2" data-name="Layer 1"><path class="cls-1" d="M331,2l39,22.32c3,1.59,4.85,2.25,6.44,1.79l7.88-1.93c1.74-.47,5.07-.81,5.68-3.63A19.17,19.17,0,0,1,390,23V86H0V1.22H10.77C13.29,1.22,14.5.42,21,6.8L48,34.7c5.5,5,6.19,5,9,5H69.5c3.07,0,4-1,7-5l22-27.9c6-5.58,10-5.58,14-3.92L208,51.29c5.5,3.34,7.5,3.34,12.39,0L320.2,1.22C324.5-1.17,328,.42,331,2Z"/></g></g></svg>