<svg width="1322" height="149" viewBox="0 0 1322 149" fill="none" xmlns="http://www.w3.org/2000/svg">
<path d="M1315.34 125.786C1318.84 122.897 1322.35 125.786 1320.91 129.707C1317.81 137.755 1307.91 148.898 1291.4 148.898C1273.65 148.898 1264.37 137.961 1264.37 117.945V109.484C1264.37 88.229 1264.57 70.6885 1265.19 58.9261H1258.38C1253.64 58.9261 1251.98 57.4816 1251.98 54.3862C1251.98 52.3226 1252.6 50.6718 1254.46 48.6082C1262.1 40.3539 1270.97 33.1313 1278.6 27.9724C1282.32 25.4961 1283.76 25.4961 1285.21 25.4961C1287.89 25.4961 1289.13 27.766 1288.92 30.8614C1288.51 35.814 1288.3 40.9729 1288.1 47.7828H1308.73C1312.24 47.7828 1315.34 48.4018 1314.3 53.9735C1313.27 59.7515 1309.76 60.3706 1305.84 60.1643L1287.89 59.5452C1287.68 70.8949 1287.68 86.3717 1287.27 109.484C1287.07 125.58 1289.75 132.183 1300.07 132.183C1305.43 132.183 1311.42 129.088 1315.34 125.786Z" fill="#DBD7C8"/>
<path d="M1211.75 32.3239C1204.94 32.1175 1200.4 27.1649 1200.81 20.9742C1201.02 12.3071 1211.13 2.81467 1220.62 3.64011C1227.02 3.84646 1231.97 9.21177 1231.77 15.4025C1231.35 24.0696 1221.04 32.7366 1211.75 32.3239ZM1207.42 118.994L1207.21 79.5799C1207.21 63.484 1197.3 65.9603 1197.3 59.5632C1197.3 57.2932 1198.54 56.0551 1203.5 53.7851C1212.37 49.4516 1223.31 45.9435 1226.4 45.7372C1229.5 45.7372 1230.94 47.1817 1230.94 51.1025L1230.73 79.5799V118.994C1230.73 138.392 1240.43 134.265 1240.43 142.313C1240.43 146.027 1237.34 146.853 1231.97 146.853H1206.18C1200.81 146.853 1197.3 145.821 1197.3 142.106C1197.3 134.265 1207.42 138.392 1207.42 118.994Z" fill="#DBD7C8"/>
<path d="M1175.3 51.0895L1175.09 79.5669V117.95C1175.09 133.426 1187.27 129.299 1187.27 135.284C1187.27 137.76 1185.2 139.823 1181.28 142.093C1175.5 145.189 1165.6 148.903 1160.23 148.903C1154.87 148.903 1152.8 145.189 1152.39 137.347L1152.18 130.537C1143.52 142.506 1129.69 148.903 1118.34 148.903C1097.09 148.903 1083.67 135.077 1083.67 107.632L1083.47 79.5669C1083.47 63.2646 1073.56 65.9473 1073.56 59.5502C1073.56 57.0739 1074.8 55.8357 1079.75 53.5658C1088.63 49.4386 1099.56 45.9305 1102.66 45.7242C1105.75 45.5178 1107.2 47.1687 1107.2 51.0895L1106.99 79.5669V105.774C1106.99 122.902 1112.15 134.045 1126.18 133.839C1138.36 133.633 1151.77 121.664 1151.77 102.885V79.5669C1151.77 63.2646 1141.66 65.9473 1141.66 59.5502C1141.66 57.0739 1142.9 55.8357 1147.85 53.5658C1156.72 49.4386 1167.66 45.9305 1170.76 45.7242C1173.85 45.5178 1175.3 47.1687 1175.3 51.0895Z" fill="#DBD7C8"/>
<path d="M1040.11 45.7227C1051.67 45.7227 1057.24 53.1515 1057.24 61.8186C1057.24 68.422 1053.32 73.7874 1048.16 73.7874C1038.67 73.9937 1039.29 64.0885 1029.38 64.0885C1021.13 64.0885 1013.49 74.8191 1013.49 91.3278V118.98C1013.49 138.377 1023.19 134.25 1023.19 142.298C1023.19 146.013 1020.1 146.838 1014.73 146.838H988.73C983.571 146.838 980.062 145.806 980.062 142.092C980.062 134.25 990.174 138.377 990.174 118.98V78.5336C990.174 72.1365 988.523 67.5966 983.777 64.5012C981.713 63.0567 980.062 61.6122 980.062 59.1359C980.062 56.4533 981.301 55.0088 986.253 52.7388C993.682 49.4371 1003.59 46.3417 1006.68 46.1354C1009.57 46.1354 1011.02 47.5799 1011.02 51.5007L1010.81 65.7394C1018.03 53.3579 1029.18 45.7227 1040.11 45.7227Z" fill="#DBD7C8"/>
<path d="M974.732 30.6688C975.558 35.4151 975.352 38.5104 972.05 39.5422C968.335 40.574 966.065 38.5104 962.97 33.1451C955.541 20.1446 946.874 13.5411 932.635 13.5411H923.143C904.983 13.5411 902.094 16.4301 902.094 23.2399V47.7966C902.094 57.289 907.666 57.9081 916.746 57.9081H921.905C941.096 57.9081 938.826 51.0983 945.223 51.0983C948.525 51.0983 949.969 53.3682 951.001 57.4954L955.541 77.9248C957.192 85.7664 956.367 87.4173 952.858 88.2427C944.191 90.5127 943.16 69.0514 921.905 69.0514H916.746C907.666 69.0514 902.094 69.6705 902.094 79.163V114.657C902.094 138.8 914.682 133.022 914.682 141.896C914.682 145.61 911.793 146.848 903.745 146.848H876.093C868.458 146.848 865.156 145.61 865.156 141.896C865.156 133.022 878.157 138.8 878.157 114.657V33.9705C878.157 9.20757 865.156 16.6365 865.156 7.35035C865.156 3.2232 868.458 2.39776 876.093 2.39776L953.478 2.19141C965.24 2.19141 967.51 3.42955 969.573 9.00122C971.431 14.5729 973.494 21.5891 974.732 30.6688Z" fill="#DBD7C8"/>
<path d="M761.382 148.899C730.573 148.899 711.711 126.473 711.711 99.8562C711.711 67.9994 735.604 44.3164 765.574 44.3164C791.563 44.3164 807.072 61.2927 807.072 78.4787C807.072 87.0716 801.832 91.4729 795.335 91.4729C787.79 91.4729 784.856 86.0237 782.97 79.5266C779.197 65.9036 772.49 56.0531 759.496 55.8435C743.777 55.8435 734.556 69.0473 734.556 87.2812C734.556 113.898 749.436 131.713 771.652 131.713C785.065 131.713 793.658 125.216 800.994 118.09C804.976 114.318 809.587 116.833 807.491 122.491C803.09 133.599 788.838 148.899 761.382 148.899Z" fill="#DBD7C8"/>
<path d="M667.062 30.4762C660.145 30.2666 655.534 25.2366 655.954 18.9491C656.163 10.1466 666.433 0.505679 676.074 1.34402C682.571 1.5536 687.601 7.00278 687.391 13.2903C686.972 22.0929 676.493 30.8954 667.062 30.4762ZM662.66 118.502L662.451 78.471C662.451 62.1235 652.391 64.6385 652.391 58.1414C652.391 55.8359 653.648 54.5784 658.678 52.273C667.69 47.8717 678.798 44.3088 681.942 44.0992C685.086 44.0992 686.553 45.5663 686.553 49.5484L686.343 78.471V118.502C686.343 138.203 696.194 134.011 696.194 142.185C696.194 145.957 693.05 146.796 687.601 146.796H661.403C655.954 146.796 652.391 145.748 652.391 141.975C652.391 134.011 662.66 138.203 662.66 118.502Z" fill="#DBD7C8"/>
<path d="M562.865 148.89C559.721 148.89 558.673 147.423 555.949 141.135C552.805 132.752 550.5 126.883 548.404 119.129C547.565 115.356 548.404 113.26 550.709 112.422C553.434 111.165 556.158 113.26 559.931 116.823C574.811 132.333 586.338 137.991 598.075 137.991C606.459 137.991 612.956 133.8 612.956 126.045C612.956 117.871 601.848 112.213 584.243 104.877C567.057 97.7512 550.919 90.2062 550.919 72.8107C550.919 53.1098 568.943 44.0977 584.871 44.0977C596.399 44.0977 603.315 46.6127 609.183 46.8222C612.956 47.0318 613.794 44.0977 616.938 44.0977C619.872 44.0977 621.339 46.6127 624.273 51.6427C627.207 57.0919 628.674 60.4452 630.351 64.6369C632.028 69.0382 631.609 71.9724 629.303 73.2299C625.74 75.1161 622.387 71.5532 615.471 66.3136C607.297 60.4452 596.818 54.7865 587.386 54.7865C577.326 54.7865 572.087 60.0261 572.087 66.104C572.087 74.2778 581.308 78.8887 599.542 86.4337C620.92 95.2362 636.01 103.41 636.01 118.919C636.01 135.686 619.872 148.89 597.237 148.89C582.147 148.89 575.44 144.698 571.039 144.698C567.895 144.698 566.847 148.89 562.865 148.89Z" fill="#DBD7C8"/>
<path d="M459.701 148.89C456.557 148.89 455.509 147.423 452.785 141.135C449.641 132.752 447.335 126.883 445.24 119.129C444.401 115.356 445.24 113.26 447.545 112.422C450.27 111.165 452.994 113.26 456.767 116.823C471.647 132.333 483.174 137.991 494.911 137.991C503.294 137.991 509.792 133.8 509.792 126.045C509.792 117.871 498.684 112.213 481.079 104.877C463.893 97.7512 447.755 90.2062 447.755 72.8107C447.755 53.1098 465.779 44.0977 481.707 44.0977C493.234 44.0977 500.151 46.6127 506.019 46.8222C509.792 47.0318 510.63 44.0977 513.774 44.0977C516.708 44.0977 518.175 46.6127 521.109 51.6427C524.043 57.0919 525.51 60.4452 527.187 64.6369C528.864 69.0382 528.445 71.9724 526.139 73.2299C522.576 75.1161 519.223 71.5532 512.307 66.3136C504.133 60.4452 493.654 54.7865 484.222 54.7865C474.162 54.7865 468.923 60.0261 468.923 66.104C468.923 74.2778 478.144 78.8887 496.378 86.4337C517.756 95.2362 532.846 103.41 532.846 118.919C532.846 135.686 516.708 148.89 494.073 148.89C478.983 148.89 472.276 144.698 467.875 144.698C464.731 144.698 463.683 148.89 459.701 148.89Z" fill="#DBD7C8"/>
<path d="M431.519 132.342C433.825 132.132 435.502 132.971 435.502 135.276C435.502 141.354 425.651 148.27 416.01 148.27C406.16 148.27 402.178 142.821 399.872 132.342C390.441 143.45 375.98 148.689 363.824 148.689C339.302 148.689 324.422 135.066 324.422 117.252C324.422 97.3412 342.237 83.0895 369.902 83.0895C377.028 83.0895 382.058 83.7183 389.603 85.1853C385.62 70.3049 382.058 59.1969 365.291 59.1969C354.602 59.1969 346.428 62.9694 338.254 67.5803C334.272 70.0953 330.29 66.9515 333.224 62.1311C338.464 54.1669 353.973 44.3164 373.465 44.3164C398.405 44.3164 406.789 60.664 411.19 78.4787L421.25 121.024C423.346 130.456 427.118 132.342 431.519 132.342ZM371.788 136.324C384.992 136.324 398.196 126.473 396.519 117.671C395.89 113.479 394.213 108.03 392.118 99.8562C391.07 94.8262 380.171 92.94 373.465 92.94C356.698 92.94 347.476 101.114 347.686 113.898C348.105 126.683 357.117 136.324 371.788 136.324Z" fill="#DBD7C8"/>
<path d="M301.575 44.0977C313.312 44.0977 318.97 51.6427 318.97 60.4452C318.97 67.1519 314.988 72.6011 309.749 72.6011C300.108 72.8107 300.737 62.7507 290.677 62.7507C282.293 62.7507 274.539 73.649 274.539 90.4158V118.5C274.539 138.201 284.389 134.009 284.389 142.183C284.389 145.956 281.245 146.794 275.796 146.794H249.388C244.149 146.794 240.586 145.746 240.586 141.974C240.586 134.009 250.856 138.201 250.856 118.5V77.4216C250.856 70.9244 249.179 66.3136 244.358 63.1698C242.263 61.7027 240.586 60.2356 240.586 57.7206C240.586 54.996 241.843 53.5289 246.873 51.2235C254.419 47.8702 264.479 44.7264 267.622 44.5168C270.556 44.5168 272.024 45.9839 272.024 49.966L271.814 64.4273C279.149 51.8523 290.467 44.0977 301.575 44.0977Z" fill="#DBD7C8"/>
<path d="M218.466 49.5408L218.256 78.4634V117.446C218.256 133.165 230.622 128.973 230.622 135.051C230.622 137.566 228.526 139.662 224.544 141.967C218.675 145.111 208.615 148.884 203.166 148.884C197.717 148.884 195.621 145.111 195.202 137.147L194.992 130.231C186.19 142.387 172.148 148.884 160.62 148.884C139.033 148.884 125.41 134.842 125.41 106.967L125.201 78.4634C125.201 61.9063 115.141 64.6309 115.141 58.1338C115.141 55.6187 116.398 54.3612 121.428 52.0558C130.44 47.8641 141.548 44.3012 144.692 44.0916C147.836 43.882 149.303 45.5587 149.303 49.5408L149.093 78.4634V105.081C149.093 122.476 154.333 133.794 168.585 133.584C180.95 133.375 194.573 121.219 194.573 102.146V78.4634C194.573 61.9063 184.303 64.6309 184.303 58.1338C184.303 55.6187 185.561 54.3612 190.591 52.0558C199.603 47.8641 210.711 44.3012 213.855 44.0916C216.999 43.882 218.466 45.5587 218.466 49.5408Z" fill="#DBD7C8"/>
<path d="M63.4456 94.8219V32.785C63.4456 8.26364 50.6609 14.132 50.6609 5.11986C50.6609 1.34736 53.5951 0.0898438 61.7689 0.0898438H90.0628C97.6078 0.0898438 100.961 1.34736 100.961 5.11986C100.961 14.132 87.9669 8.26364 87.9669 32.785V86.4386C87.9669 124.583 77.9069 148.685 40.6009 148.685C13.7741 148.685 0.570312 131.08 0.570312 113.894C0.570312 105.511 5.80992 101.109 12.0974 101.109C19.8521 101.109 23.6246 106.349 24.4629 112.846C26.7683 126.469 31.5888 136.11 43.3255 136.11C57.3676 136.11 63.4456 120.391 63.4456 94.8219Z" fill="#DBD7C8"/>
</svg>
